<svg width="32" height="32" viewBox="0 0 32 32" xmlns="http://www.w3.org/2000/svg">
  <defs>
    <linearGradient id="mintGradient" x1="0%" y1="0%" x2="100%" y2="100%">
      <stop offset="0%" style="stop-color:#a7f3d0;stop-opacity:1" />
      <stop offset="50%" style="stop-color:#6ee7b7;stop-opacity:1" />
      <stop offset="100%" style="stop-color:#34d399;stop-opacity:1" />
    </linearGradient>
    <linearGradient id="swirlGradient" x1="0%" y1="0%" x2="100%" y2="100%">
      <stop offset="0%" style="stop-color:#10b981;stop-opacity:1" />
      <stop offset="50%" style="stop-color:#059669;stop-opacity:1" />
      <stop offset="100%" style="stop-color:#047857;stop-opacity:1" />
    </linearGradient>
  </defs>
  
  <!-- Hexagonal background -->
  <path d="M16 2 L28 9 L28 23 L16 30 L4 23 L4 9 Z" fill="url(#mintGradient)" stroke="#047857" stroke-width="0.5"/>
  
  <!-- Central swirl pattern -->
  <g transform="translate(16,16)">
    <path d="M0,-8 C-4,-6 -6,-2 -6,2 C-6,6 -4,8 0,8 C4,8 6,6 6,2 C6,-2 4,-4 2,-4 C0,-4 -1,-3 -1,-2 C-1,-1 0,-1 0,-1" 
          fill="none" 
          stroke="url(#swirlGradient)" 
          stroke-width="2" 
          stroke-linecap="round"/>
    <path d="M0,8 C4,6 6,2 6,-2 C6,-6 4,-8 0,-8 C-4,-8 -6,-6 -6,-2 C-6,2 -4,4 -2,4 C0,4 1,3 1,2 C1,1 0,1 0,1" 
          fill="none" 
          stroke="url(#swirlGradient)" 
          stroke-width="2" 
          stroke-linecap="round"/>
    <path d="M8,0 C6,4 2,6 -2,6 C-6,6 -8,4 -8,0 C-8,-4 -6,-6 -2,-6 C2,-6 4,-4 4,-2 C4,0 3,1 2,1 C1,1 1,0 1,0" 
          fill="none" 
          stroke="url(#swirlGradient)" 
          stroke-width="2" 
          stroke-linecap="round"/>
  </g>
</svg>